<svg width="12" height="66" viewBox="0 0 12 66" fill="none" xmlns="http://www.w3.org/2000/svg">
<path d="M10.5246 0L9.44262 46.9417H1.96721L0.885245 0H10.5246ZM6.09836 66C4.39344 66 2.95082 65.4367 1.77049 64.3101C0.590164 63.1835 0 61.8065 0 60.1792C0 58.5519 0.590164 57.175 1.77049 56.0484C2.95082 54.9218 4.39344 54.3585 6.09836 54.3585C7.7377 54.3585 9.11475 54.9218 10.2295 56.0484C11.4098 57.175 12 58.5519 12 60.1792C12 61.8065 11.4098 63.1835 10.2295 64.3101C9.11475 65.4367 7.7377 66 6.09836 66Z" fill="#FDDB3A"/>
</svg>
