<svg width="90" height="35" viewBox="0 0 90 35" fill="none" xmlns="http://www.w3.org/2000/svg">
<path d="M64 29.5C64 28.1193 65.1193 27 66.5 27V27C67.8807 27 69 28.1193 69 29.5V29.5C69 30.8807 67.8807 32 66.5 32V32C65.1193 32 64 30.8807 64 29.5V29.5Z" fill="#FDDB3A"/>
<path d="M14.52 14.12C14.056 13.144 13.384 12.392 12.504 11.864C11.624 11.32 10.6 11.048 9.432 11.048C8.264 11.048 7.208 11.32 6.264 11.864C5.336 12.392 4.6 13.16 4.056 14.168C3.528 15.16 3.264 16.312 3.264 17.624C3.264 18.936 3.528 20.088 4.056 21.08C4.6 22.072 5.336 22.84 6.264 23.384C7.208 23.912 8.264 24.176 9.432 24.176C11.064 24.176 12.408 23.688 13.464 22.712C14.52 21.736 15.136 20.416 15.312 18.752H8.64V16.976H17.64V18.656C17.512 20.032 17.08 21.296 16.344 22.448C15.608 23.584 14.64 24.488 13.44 25.16C12.24 25.816 10.904 26.144 9.432 26.144C7.88 26.144 6.464 25.784 5.184 25.064C3.904 24.328 2.888 23.312 2.136 22.016C1.4 20.72 1.032 19.256 1.032 17.624C1.032 15.992 1.4 14.528 2.136 13.232C2.888 11.92 3.904 10.904 5.184 10.184C6.464 9.448 7.88 9.08 9.432 9.08C11.208 9.08 12.776 9.52 14.136 10.4C15.512 11.28 16.512 12.52 17.136 14.12H14.52ZM21.6557 10.712C21.2397 10.712 20.8877 10.568 20.5997 10.28C20.3117 9.992 20.1677 9.64 20.1677 9.224C20.1677 8.808 20.3117 8.456 20.5997 8.168C20.8877 7.88 21.2397 7.736 21.6557 7.736C22.0557 7.736 22.3917 7.88 22.6637 8.168C22.9517 8.456 23.0957 8.808 23.0957 9.224C23.0957 9.64 22.9517 9.992 22.6637 10.28C22.3917 10.568 22.0557 10.712 21.6557 10.712ZM22.7117 12.848V26H20.5277V12.848H22.7117ZM29.0979 14.648V22.4C29.0979 23.04 29.2339 23.496 29.5059 23.768C29.7779 24.024 30.2499 24.152 30.9219 24.152H32.5299V26H30.5619C29.3459 26 28.4339 25.72 27.8259 25.16C27.2179 24.6 26.9139 23.68 26.9139 22.4V14.648H25.2099V12.848H26.9139V9.536H29.0979V12.848H32.5299V14.648H29.0979ZM41.7041 12.608C42.6961 12.608 43.5921 12.824 44.3921 13.256C45.1921 13.672 45.8161 14.304 46.2641 15.152C46.7281 16 46.9601 17.032 46.9601 18.248V26H44.8001V18.56C44.8001 17.248 44.4721 16.248 43.8161 15.56C43.1601 14.856 42.2641 14.504 41.1281 14.504C39.9761 14.504 39.0561 14.864 38.3681 15.584C37.6961 16.304 37.3601 17.352 37.3601 18.728V26H35.1761V8.24H37.3601V14.72C37.7921 14.048 38.3841 13.528 39.1361 13.16C39.9041 12.792 40.7601 12.608 41.7041 12.608ZM62.5277 18.92C62.5277 19.336 62.5037 19.776 62.4557 20.24H51.9437C52.0237 21.536 52.4637 22.552 53.2637 23.288C54.0797 24.008 55.0637 24.368 56.2157 24.368C57.1597 24.368 57.9437 24.152 58.5677 23.72C59.2077 23.272 59.6557 22.68 59.9117 21.944H62.2637C61.9117 23.208 61.2077 24.24 60.1517 25.04C59.0957 25.824 57.7837 26.216 56.2157 26.216C54.9677 26.216 53.8477 25.936 52.8557 25.376C51.8797 24.816 51.1117 24.024 50.5517 23C49.9917 21.96 49.7117 20.76 49.7117 19.4C49.7117 18.04 49.9837 16.848 50.5277 15.824C51.0717 14.8 51.8317 14.016 52.8077 13.472C53.7997 12.912 54.9357 12.632 56.2157 12.632C57.4637 12.632 58.5677 12.904 59.5277 13.448C60.4877 13.992 61.2237 14.744 61.7357 15.704C62.2637 16.648 62.5277 17.72 62.5277 18.92ZM60.2717 18.464C60.2717 17.632 60.0877 16.92 59.7197 16.328C59.3517 15.72 58.8477 15.264 58.2077 14.96C57.5837 14.64 56.8877 14.48 56.1197 14.48C55.0157 14.48 54.0717 14.832 53.2877 15.536C52.5197 16.24 52.0797 17.216 51.9677 18.464H60.2717ZM67.5945 8.24V26H65.4105V8.24H67.5945ZM73.5008 15.272C73.9328 14.52 74.5728 13.896 75.4208 13.4C76.2848 12.888 77.2848 12.632 78.4208 12.632C79.5888 12.632 80.6448 12.912 81.5887 13.472C82.5487 14.032 83.3008 14.824 83.8448 15.848C84.3888 16.856 84.6608 18.032 84.6608 19.376C84.6608 20.704 84.3888 21.888 83.8448 22.928C83.3008 23.968 82.5487 24.776 81.5887 25.352C80.6448 25.928 79.5888 26.216 78.4208 26.216C77.3008 26.216 76.3088 25.968 75.4448 25.472C74.5968 24.96 73.9488 24.328 73.5008 23.576V32.24H71.3168V12.848H73.5008V15.272ZM82.4288 19.376C82.4288 18.384 82.2288 17.52 81.8288 16.784C81.4288 16.048 80.8848 15.488 80.1968 15.104C79.5248 14.72 78.7808 14.528 77.9648 14.528C77.1648 14.528 76.4208 14.728 75.7328 15.128C75.0608 15.512 74.5168 16.08 74.1008 16.832C73.7008 17.568 73.5008 18.424 73.5008 19.4C73.5008 20.392 73.7008 21.264 74.1008 22.016C74.5168 22.752 75.0608 23.32 75.7328 23.72C76.4208 24.104 77.1648 24.296 77.9648 24.296C78.7808 24.296 79.5248 24.104 80.1968 23.72C80.8848 23.32 81.4288 22.752 81.8288 22.016C82.2288 21.264 82.4288 20.384 82.4288 19.376Z" fill="#F6F4E6"/>
</svg>
